<svg width="185" height="179" viewBox="0 0 185 179" fill="none" xmlns="http://www.w3.org/2000/svg">
<rect x="0.308594" y="99.3003" width="171" height="28" transform="rotate(-35.5 0.308594 99.3003)" fill="#B961FF" fill-opacity="0.26"/>
<rect x="22.3086" y="127.3" width="152" height="28" transform="rotate(-35.5 22.3086 127.3)" fill="#B961FF" fill-opacity="0.26"/>
<rect x="44.3086" y="155.3" width="152" height="28" transform="rotate(-35.5 44.3086 155.3)" fill="#B961FF" fill-opacity="0.26"/>
<path fill-rule="evenodd" clip-rule="evenodd" d="M91.6719 17.0479L92.5601 17.7005L140.191 52.7005L140.803 53.1501V53.9093V123.909V124.668L140.191 125.118L92.5601 160.118L91.6719 160.771L90.7837 160.118L43.1523 125.118L42.5405 124.668V123.909V53.9093V53.1501L43.1523 52.7005L90.7837 17.7005L91.6719 17.0479ZM45.5405 54.6685V62.9296L90.7927 30.1939L91.6672 29.5613L92.5449 30.1895L137.803 62.585V54.6685L91.6719 20.7707L45.5405 54.6685ZM45.5405 111.709V66.61L45.551 66.6246L91.6765 33.2573L137.803 66.2743V112.044L91.6765 145.061L45.551 111.694L45.5405 111.709ZM45.5405 115.389V123.15L91.6719 157.048L137.803 123.15V115.734L92.5449 148.129L91.6672 148.757L90.7927 148.125L45.5405 115.389Z" fill="#B961FF"/>
</svg>
