<svg width="317" height="301" viewBox="0 0 317 301" fill="none" xmlns="http://www.w3.org/2000/svg">
<path d="M3.4627e-05 299.508C3.4627e-05 298.686 12.2763 287.074 13.145 287.074C13.9208 287.074 25.5824 297.712 26.4369 299.199C26.8211 299.867 26.739 300.074 26.089 300.074C25.6211 300.074 22.5269 297.562 19.2129 294.493L13.1875 288.912L7.16214 294.493C1.44209 299.791 3.4627e-05 300.801 3.4627e-05 299.508ZM38.6843 287.971C31.6241 281.315 25.8475 275.518 25.8475 275.089C25.8475 274.09 38.5252 262.074 39.5796 262.074C40.3485 262.074 79.6525 298.992 79.6525 299.714C79.6525 301.341 75.3502 297.694 58.7082 281.958L39.549 263.842L33.63 269.453L27.711 275.063L40.4943 287.217C47.5251 293.902 53.2775 299.529 53.2775 299.722C53.2775 301.251 49.7983 298.45 38.6843 287.971ZM105.5 299.771C105.5 299.297 112.813 292.248 116.197 289.461L119.245 286.95L125.34 292.637C131.875 298.735 133.001 300.074 131.593 300.074C131.127 300.074 128.19 297.711 125.066 294.824C121.942 291.936 119.191 289.574 118.951 289.574C118.712 289.574 115.96 291.936 112.836 294.824C107.967 299.325 105.5 300.988 105.5 299.771ZM144.449 288.222C137.533 281.703 131.875 276.051 131.875 275.661C131.875 274.796 144.411 262.074 145.264 262.074C145.911 262.074 185.153 299.104 185.153 299.714C185.153 301.34 180.866 297.708 164.333 282.076L145.299 264.079L140.813 268.451C138.346 270.856 135.753 273.448 135.052 274.211L133.777 275.599L146.277 287.485C153.152 294.023 158.778 299.53 158.778 299.723C158.778 301.246 155.334 298.482 144.449 288.222ZM210.938 299.199C211.628 297.998 223.381 287.074 223.982 287.074C224.249 287.074 227.546 289.999 231.309 293.574C239.713 301.558 238.975 302.539 230.37 294.824C227.149 291.936 224.283 289.574 224.001 289.574C223.719 289.574 220.933 291.936 217.809 294.824C214.685 297.711 211.748 300.074 211.282 300.074C210.636 300.074 210.554 299.867 210.938 299.199ZM249.837 288.199C242.838 281.668 236.906 276.016 236.654 275.639C236.323 275.143 238.06 273.185 242.977 268.514C246.705 264.972 250.016 262.074 250.333 262.074C251.023 262.074 289.394 297.779 290.158 299.132C290.583 299.885 290.507 300.074 289.779 300.074C289.277 300.074 280.254 291.93 269.727 281.976L250.587 263.878L249.124 265.086C244.673 268.763 238.958 274.413 238.958 275.138C238.958 275.598 244.438 280.997 251.135 287.137C263.582 298.547 265.035 300.074 263.439 300.074C262.957 300.074 256.836 294.73 249.837 288.199ZM85.5198 281.849C81.7126 278.287 78.5975 275.117 78.5975 274.804C78.5975 274.491 90.1102 263.137 104.181 249.574C118.252 236.011 129.765 224.655 129.765 224.339C129.765 223.648 119.061 213.574 118.328 213.574C118.046 213.574 106.358 224.599 92.3555 238.074C78.3528 251.549 66.6499 262.574 66.349 262.574C66.048 262.574 60.5461 257.793 54.1225 251.949C47.6988 246.105 41.788 240.772 40.9872 240.098L39.5312 238.872L20.1447 257.223C9.48212 267.316 0.587602 275.574 0.379111 275.574C-1.33965 275.574 2.54445 271.464 19.3695 255.477C30.0227 245.355 39.1022 237.082 39.5463 237.092C39.9904 237.102 46.162 242.373 53.2609 248.805C60.9371 255.761 66.4153 260.364 66.7782 260.163C67.1138 259.976 78.5889 249.024 92.2786 235.824C105.968 222.624 117.57 211.761 118.06 211.684C118.613 211.598 121.549 214.015 125.791 218.049L132.63 224.554L121.309 235.439C115.083 241.426 103.348 252.683 95.2313 260.455L80.4744 274.586L86.2616 280.091C89.4445 283.119 92.3221 285.535 92.6562 285.46C92.9903 285.385 104.583 274.411 118.419 261.074C132.254 247.736 143.935 236.746 144.376 236.652C144.858 236.548 150.398 241.413 158.252 248.836C165.443 255.632 171.583 261.109 171.897 261.008C172.211 260.907 183.796 249.911 197.64 236.574C211.485 223.236 223.15 212.129 223.563 211.891C224.117 211.571 226.092 213.14 231.108 217.883C234.845 221.418 237.903 224.54 237.903 224.822C237.903 225.104 226.375 236.426 212.286 249.982C198.197 263.538 186.743 274.909 186.834 275.251C186.925 275.593 189.568 278.213 192.709 281.073L198.42 286.273L206.679 278.299C232.786 253.09 249.799 237.074 250.467 237.074C250.885 237.074 254.891 240.393 259.369 244.449C263.847 248.505 269.765 253.825 272.521 256.27L277.531 260.716L296.817 242.52C307.498 232.442 316.21 224.599 316.343 224.942C316.475 225.281 316.103 226.199 315.516 226.98C313.988 229.014 278.043 262.574 277.393 262.574C277.094 262.574 271.029 257.275 263.913 250.798C256.797 244.321 250.65 239.09 250.253 239.173C249.855 239.256 238.202 250.236 224.357 263.574C210.512 276.911 198.816 287.887 198.366 287.964C197.901 288.043 194.601 285.299 190.698 281.588L183.848 275.073L192.023 267.198C196.519 262.867 208.207 251.66 217.995 242.293C227.784 232.926 235.793 225.029 235.793 224.745C235.793 223.851 224.742 213.995 223.928 214.163C223.502 214.252 211.94 225.124 198.235 238.324C184.53 251.524 172.868 262.635 172.319 263.016C171.4 263.653 170.276 262.717 157.913 251.016L144.504 238.324L118.473 263.324L92.4421 288.324L85.5198 281.849ZM295.987 281.634C292.473 278.092 289.598 274.993 289.598 274.746C289.598 274.007 315.923 249.36 316.315 249.732C317.132 250.507 314.714 253.09 303.992 262.898C297.797 268.563 292.48 273.639 292.177 274.177C291.696 275.029 292.377 275.878 297.445 280.735L303.266 286.314L309.536 280.444C312.985 277.215 315.963 274.574 316.153 274.574C316.344 274.574 316.5 274.93 316.5 275.366C316.5 276.452 304.415 288.074 303.286 288.074C302.786 288.074 299.502 285.176 295.987 281.634ZM3.4627e-05 249.742C3.4627e-05 249.285 5.63154 243.543 12.5145 236.982L25.029 225.054L19.1209 219.453L13.2128 213.853L6.95317 219.714C3.51036 222.937 0.537484 225.574 0.346776 225.574C0.156068 225.574 3.4627e-05 225.217 3.4627e-05 224.782C3.4627e-05 223.733 12.0652 212.074 13.1505 212.074C14.2222 212.074 26.9025 224.08 26.9025 225.094C26.9025 225.822 1.1292 250.574 0.371421 250.574C0.167158 250.574 3.4627e-05 250.2 3.4627e-05 249.742ZM39.5005 213.815C25.3954 200.482 13.5222 189.574 13.1156 189.574C12.7091 189.574 10.0072 191.839 7.11139 194.608C1.35812 200.108 3.4627e-05 201.101 3.4627e-05 199.806C3.4627e-05 198.963 10.621 188.343 12.3359 187.472C13.1959 187.035 15.2301 188.749 27.3696 200.145C35.0912 207.394 46.9267 218.497 53.6708 224.818L65.9328 236.311L71.7377 230.826C74.9304 227.809 77.5415 225.112 77.5402 224.832C77.5391 224.553 65.9669 213.531 51.8246 200.339C37.6823 187.148 25.9056 176.04 25.6542 175.655C25.3193 175.142 27.0087 173.234 31.9766 168.514C35.7053 164.972 39.0667 162.074 39.4464 162.074C39.826 162.074 51.8844 173.141 66.2427 186.668L92.3487 211.263L105.147 199.168C112.186 192.516 118.183 187.074 118.473 187.074C118.764 187.074 119.939 187.993 121.086 189.117C122.233 190.241 134.044 201.306 147.334 213.706L171.497 236.251L177.27 230.796C180.445 227.796 183.041 225.112 183.04 224.832C183.039 224.553 171.467 213.531 157.325 200.339C143.182 187.148 131.406 176.04 131.154 175.655C130.819 175.142 132.509 173.234 137.477 168.514C141.205 164.972 144.567 162.074 144.946 162.074C145.326 162.074 157.387 173.144 171.748 186.673L197.859 211.272L210.632 199.173C217.657 192.519 223.651 187.074 223.953 187.074C224.254 187.074 225.439 187.993 226.586 189.117C227.733 190.241 239.544 201.306 252.834 213.706L276.997 236.251L282.77 230.796C285.945 227.796 288.541 225.112 288.54 224.832C288.539 224.553 276.967 213.531 262.825 200.339C248.682 187.148 236.906 176.04 236.654 175.655C236.319 175.142 238.009 173.234 242.977 168.514C246.705 164.972 250.06 162.074 250.431 162.074C250.802 162.074 262.752 172.986 276.986 186.324C291.221 199.661 303.15 210.574 303.495 210.574C303.841 210.574 306.493 208.309 309.389 205.54C315.151 200.031 316.5 199.046 316.5 200.348C316.5 201.379 304.377 213.157 303.513 212.966C303.158 212.888 291.1 201.834 276.717 188.401L250.566 163.978L248.059 165.988C243.522 169.624 238.849 174.423 239.038 175.251C239.139 175.692 250.734 186.789 264.805 199.911C278.876 213.033 290.465 224.062 290.559 224.421C290.775 225.247 278.022 238.074 276.985 238.074C276.562 238.074 264.494 227.009 250.167 213.485L224.119 188.896L211.358 200.985C204.339 207.634 198.278 213.074 197.89 213.074C197.502 213.074 185.467 202.019 171.147 188.508L145.11 163.943L142.581 165.97C138.025 169.622 133.348 174.421 133.538 175.251C133.639 175.692 145.234 186.789 159.305 199.911C173.376 213.033 184.966 224.062 185.059 224.421C185.276 225.249 172.521 238.074 171.481 238.074C171.056 238.074 159.153 227.161 145.03 213.824C130.908 200.486 119.023 189.574 118.62 189.574C118.217 189.574 112.313 194.861 105.5 201.324C98.6867 207.786 92.7771 213.074 92.3675 213.074C91.958 213.074 80.0189 202.105 65.8363 188.699C51.6536 175.293 39.8516 164.258 39.6095 164.178C39.3674 164.098 36.6349 166.327 33.5373 169.13C29.7556 172.552 27.9572 174.527 28.0633 175.14C28.1502 175.643 39.734 186.79 53.805 199.911C67.8761 213.033 79.4655 224.062 79.5593 224.421C79.7808 225.269 67.0054 238.077 65.9504 238.065C65.5082 238.06 53.6057 227.147 39.5005 213.815ZM85.1982 181.588L78.3476 175.072L86.5228 167.198C91.0192 162.867 102.707 151.66 112.495 142.293C122.284 132.926 130.293 125.029 130.293 124.745C130.293 123.982 119.403 114.074 118.564 114.074C118.17 114.074 114.539 117.28 110.495 121.199C89.0652 141.965 66.7786 163.074 66.2843 163.074C65.9752 163.074 59.8185 157.505 52.6027 150.699L39.4831 138.324L20.0387 156.949C9.34429 167.193 0.460595 175.574 0.297171 175.574C-1.21222 175.574 2.6608 171.464 19.2837 155.428C29.8897 145.196 38.9437 136.745 39.4036 136.649C39.9281 136.539 45.1183 141.095 53.3296 148.873L66.4193 161.273L71.9102 156.048C74.9301 153.175 86.3921 142.161 97.3811 131.574C108.37 120.986 117.688 112.129 118.087 111.891C118.615 111.576 120.669 113.212 125.608 117.883C129.345 121.418 132.403 124.54 132.403 124.822C132.403 125.104 120.875 136.426 106.786 149.982C92.6965 163.538 81.2432 174.909 81.3339 175.251C81.4246 175.593 84.0685 178.213 87.2093 181.073L92.9198 186.273L101.179 178.299C128.023 152.379 144.308 137.076 145.03 137.092C145.483 137.102 151.662 142.373 158.761 148.805C166.437 155.761 171.915 160.364 172.278 160.163C172.614 159.976 184.089 149.024 197.779 135.824C211.468 122.624 223.07 111.761 223.56 111.684C224.113 111.598 227.049 114.015 231.291 118.049L238.13 124.554L226.809 135.439C220.583 141.426 208.848 152.683 200.731 160.455L185.974 174.586L191.762 180.091C194.945 183.119 197.822 185.535 198.156 185.46C198.49 185.385 210.084 174.411 223.92 161.074C239.341 146.209 249.518 136.77 250.215 136.683C251.087 136.576 254.32 139.359 264.01 148.558C270.97 155.167 276.906 160.574 277.2 160.574C277.494 160.574 286.041 152.685 296.194 143.043C306.347 133.401 315.069 125.293 315.577 125.025C316.298 124.645 316.5 124.728 316.5 125.402C316.5 126.25 279.721 161.658 277.803 162.657C276.957 163.098 275.033 161.477 263.81 150.871C256.654 144.107 250.568 138.57 250.285 138.566C250.003 138.561 238.11 149.755 223.857 163.441L197.942 188.324L191.02 181.849C187.213 178.287 184.098 175.117 184.098 174.804C184.098 174.491 195.61 163.137 209.681 149.574C223.752 136.011 235.265 124.655 235.265 124.339C235.265 123.648 224.561 113.574 223.828 113.574C223.546 113.574 211.858 124.599 197.855 138.074C183.853 151.549 172.161 162.574 171.873 162.574C171.586 162.574 165.529 157.275 158.413 150.798C151.297 144.321 145.15 139.09 144.753 139.173C144.355 139.256 132.702 150.236 118.857 163.574C105.012 176.911 93.316 187.887 92.8663 187.963C92.4006 188.043 89.1008 185.299 85.1982 181.588ZM296.571 182.028C292.88 178.702 289.778 175.633 289.676 175.207C289.499 174.464 313.523 151.106 315.577 150.025C316.295 149.647 316.5 149.727 316.5 150.388C316.5 150.855 310.862 156.619 303.972 163.197L291.444 175.156L297.246 180.349C300.438 183.205 303.291 185.549 303.586 185.558C303.882 185.567 306.493 183.309 309.389 180.54C315.151 175.031 316.5 174.046 316.5 175.348C316.5 176.175 304.566 188.074 303.737 188.074C303.486 188.074 300.261 185.353 296.571 182.028ZM3.4627e-05 149.742C3.4627e-05 149.285 5.61247 143.561 12.4721 137.022L24.9442 125.134L22.7981 122.729C21.6178 121.406 18.9696 118.752 16.9132 116.831L13.1743 113.338L6.80907 119.456C3.30822 122.821 0.344015 125.574 0.221958 125.574C0.0998999 125.574 3.4627e-05 125.216 3.4627e-05 124.779C3.4627e-05 123.856 12.5268 111.574 13.4685 111.574C14.326 111.574 26.9025 124.294 26.9025 125.161C26.9025 125.844 1.0851 150.574 0.371421 150.574C0.167158 150.574 3.4627e-05 150.2 3.4627e-05 149.742ZM39.1451 113.486L13.144 88.9178L6.91877 94.7458C3.49488 97.9512 0.537484 100.574 0.346776 100.574C0.156068 100.574 3.4627e-05 100.217 3.4627e-05 99.7818C3.4627e-05 98.8808 11.9887 87.0739 12.9036 87.0739C13.2321 87.0739 14.4393 87.9934 15.5861 89.1173C16.733 90.2412 28.5445 101.306 41.834 113.706L65.9967 136.251L71.7696 130.796C74.9447 127.796 77.5415 125.112 77.5402 124.832C77.5391 124.553 65.9669 113.531 51.8246 100.339C37.6823 87.1479 25.9056 76.0398 25.6542 75.6547C25.3193 75.1416 27.0087 73.2336 31.9766 68.5142C35.7053 64.972 39.0662 62.0739 39.4454 62.0739C39.8245 62.0739 51.7192 72.9864 65.8781 86.3239C80.037 99.6614 91.8384 110.574 92.1034 110.574C92.3684 110.574 97.8055 105.609 104.186 99.5405C110.566 93.4722 116.467 88.1649 117.3 87.7467L118.814 86.9863L133.125 100.401C140.996 107.779 152.835 118.877 159.435 125.063L171.433 136.311L177.238 130.826C180.43 127.809 183.041 125.112 183.04 124.832C183.039 124.553 171.467 113.531 157.325 100.339C143.182 87.1479 131.406 76.0398 131.154 75.6547C130.819 75.1416 132.509 73.2336 137.477 68.5142C141.205 64.972 144.567 62.0739 144.946 62.0739C145.326 62.0739 157.387 73.1435 171.748 86.6731L197.859 111.272L210.632 99.1731C217.657 92.5185 223.651 87.0739 223.953 87.0739C224.254 87.0739 225.439 87.9934 226.586 89.1173C227.733 90.2412 239.544 101.306 252.834 113.706L276.997 136.251L282.77 130.796C285.945 127.796 288.541 125.112 288.54 124.832C288.539 124.553 276.967 113.531 262.825 100.339C248.682 87.1479 236.906 76.0398 236.654 75.6547C236.319 75.1416 238.009 73.2336 242.977 68.5142C246.705 64.972 250.067 62.0739 250.446 62.0739C250.826 62.0739 262.881 73.1385 277.236 86.6618L303.335 111.25L309.728 105.287C313.344 101.915 316.222 99.5923 316.352 99.9416C316.479 100.281 316.111 101.181 315.534 101.942C313.896 104.101 304.064 113.074 303.336 113.074C302.977 113.074 290.967 102.019 276.647 88.5084L250.61 63.9429L248.081 65.9702C243.525 69.6217 238.848 74.4211 239.038 75.2508C239.139 75.6918 250.734 86.7888 264.805 99.9108C278.876 113.033 290.465 124.062 290.559 124.421C290.776 125.249 278.021 138.074 276.981 138.074C276.556 138.074 264.653 127.161 250.53 113.824C236.408 100.486 224.523 89.5739 224.12 89.5739C223.717 89.5739 217.813 94.8614 211 101.324C204.187 107.786 198.291 113.074 197.898 113.074C197.505 113.074 185.467 102.019 171.147 88.5084L145.11 63.9429L142.581 65.9702C138.025 69.6217 133.348 74.4211 133.538 75.2508C133.639 75.6918 145.234 86.7888 159.305 99.9108C173.376 113.033 184.966 124.062 185.059 124.421C185.28 125.265 172.51 138.074 171.448 138.074C171.005 138.074 160.673 128.609 148.489 117.041C136.305 105.474 124.5 94.4278 122.256 92.4952L118.176 88.9812L105.501 100.653C98.5298 107.072 92.4656 112.398 92.0248 112.489C91.542 112.588 80.9629 102.969 65.4188 88.2966L39.6143 63.9397L37.0828 65.9686C32.5092 69.6341 27.8483 74.4205 28.038 75.2568C28.1388 75.701 39.734 86.7975 53.805 99.9156C67.8761 113.034 79.4655 124.061 79.5593 124.42C79.7808 125.269 67.0053 138.077 65.9504 138.064C65.5082 138.058 53.4458 126.998 39.1451 113.486ZM85.5198 81.8486C81.7126 78.2871 78.5975 75.117 78.5975 74.8038C78.5975 74.4906 90.1102 63.1371 104.181 49.5739C118.252 36.0106 129.765 24.6547 129.765 24.3386C129.765 23.6483 119.061 13.5739 118.328 13.5739C118.046 13.5739 106.358 24.5989 92.3555 38.0739C78.3528 51.5489 66.6499 62.5739 66.349 62.5739C66.048 62.5739 60.5461 57.7926 54.1225 51.9489C47.6988 46.1051 41.788 40.7721 40.9872 40.0978L39.5312 38.8717L19.9669 57.3478C9.09341 67.6164 0.294725 75.5495 0.159876 75.2062C0.0264284 74.8664 0.393775 73.9664 0.976202 73.2062C2.97983 70.5908 38.807 37.0739 39.58 37.0917C40.0056 37.1017 46.162 42.3726 53.2609 48.8054C60.9371 55.7612 66.4153 60.364 66.7782 60.1626C67.1138 59.9763 78.5889 49.0239 92.2786 35.8239C105.968 22.6239 117.57 11.761 118.06 11.6842C118.613 11.5976 121.549 14.015 125.791 18.0493L132.63 24.5541L121.309 35.4389C115.083 41.4257 103.348 52.6828 95.2313 60.4548L80.4744 74.5858L86.2616 80.0911C89.4445 83.1189 92.3221 85.535 92.6562 85.4601C92.9903 85.3851 104.588 74.4114 118.429 61.0739C132.944 47.0858 143.991 36.8239 144.533 36.8239C145.049 36.8239 151.45 42.3188 158.757 49.0348L172.041 61.2457L177.461 56.0348C180.443 53.1688 191.877 42.1614 202.871 31.5739C213.866 20.9864 223.188 12.1289 223.587 11.8906C224.115 11.5757 226.169 13.212 231.108 17.8834C234.845 21.4177 237.903 24.5403 237.903 24.8224C237.903 25.1045 226.375 36.4264 212.286 49.9823C198.197 63.5381 186.743 74.9091 186.834 75.251C186.925 75.593 189.568 78.2129 192.709 81.0731L198.42 86.2735L206.679 78.2987C233.327 52.5679 249.807 37.0739 250.526 37.0739C250.977 37.0739 257.103 42.5272 264.139 49.1924L276.932 61.311L296.337 42.9424C307.01 32.8397 315.912 24.5739 316.121 24.5739C317.84 24.5739 313.956 28.6842 297.131 44.6702C286.477 54.7922 277.396 63.0739 276.95 63.0739C276.503 63.0739 270.443 57.6695 263.482 51.0642C256.521 44.4589 250.535 39.1152 250.178 39.1892C249.822 39.2632 238.202 50.2364 224.357 63.5739C210.512 76.9114 198.816 87.8867 198.366 87.9635C197.901 88.043 194.601 85.2995 190.698 81.5878L183.848 75.0725L192.023 67.1982C196.519 62.8673 208.207 51.6599 217.995 42.2928C227.784 32.9258 235.793 25.0293 235.793 24.7452C235.793 23.9824 224.903 14.0739 224.064 14.0739C223.67 14.0739 220.039 17.2801 215.995 21.1989C194.708 41.8261 172.28 63.0739 171.794 63.0739C171.49 63.0739 165.396 57.5614 158.25 50.8239C151.104 44.0864 145.036 38.5703 144.765 38.5658C144.493 38.5618 132.61 49.7552 118.357 63.4408L92.4421 88.3239L85.5198 81.8486ZM296.477 81.8253C292.693 78.2766 289.598 75.1479 289.598 74.8724C289.598 74.2836 314.221 50.7289 315.577 50.0208C316.293 49.6466 316.5 49.7287 316.5 50.3869C316.5 50.8535 311.04 56.4405 304.368 62.8025C297.695 69.1644 292.235 74.6096 292.235 74.9029C292.235 75.471 302.467 85.1994 303.385 85.5045C303.684 85.6039 306.673 83.1289 310.026 80.0045C313.954 76.3447 316.214 74.5677 316.377 75.0095C316.526 75.4126 313.896 78.2874 309.994 81.9862L303.356 88.2773L296.477 81.8253ZM3.4627e-05 49.7422C3.4627e-05 49.2849 5.63154 43.5428 12.5145 36.9821L25.029 25.0535L19.1209 19.4534L13.2128 13.8534L6.95317 19.7136C3.51036 22.9368 0.537484 25.5739 0.346776 25.5739C0.156068 25.5739 3.4627e-05 25.2175 3.4627e-05 24.7818C3.4627e-05 23.7331 12.0652 12.0739 13.1505 12.0739C14.2222 12.0739 26.9025 24.0797 26.9025 25.0944C26.9025 25.8221 1.1292 50.5739 0.371421 50.5739C0.167158 50.5739 3.4627e-05 50.1996 3.4627e-05 49.7422ZM45.4874 19.4334C34.6855 9.18112 25.8475 0.631124 25.8475 0.433394C25.8475 -1.19342 30.1498 2.45403 46.7918 18.1897L65.951 36.3055L71.87 30.6951L77.789 25.0847L65.0058 12.9308C57.975 6.24623 52.2225 0.618799 52.2225 0.425429C52.2225 0.232069 52.6177 0.0738664 53.1008 0.0738664C54.2158 0.0738664 79.6525 24.0095 79.6525 25.0588C79.6525 26.0581 66.9749 38.0739 65.9205 38.0739C65.4843 38.0739 56.2894 29.6857 45.4874 19.4334ZM150.987 19.4334C140.185 9.18112 131.348 0.631124 131.348 0.433394C131.348 -1.19342 135.65 2.45403 152.292 18.1897L171.451 36.3055L177.37 30.6951L183.289 25.0847L170.374 12.7671C163.169 5.89548 157.747 0.349217 158.11 0.222517C158.469 0.0975975 159.418 0.446071 160.22 0.996901C162.77 2.74757 185.153 24.3456 185.153 25.0547C185.153 26.0118 172.462 38.0739 171.455 38.0739C171 38.0739 161.789 29.6857 150.987 19.4334ZM256.487 19.4334C245.685 9.18112 236.848 0.631124 236.848 0.433394C236.848 -1.1934 241.149 2.45364 257.789 18.1868L276.945 36.2998L282.744 30.8204C285.933 27.8067 288.543 25.0741 288.543 24.748C288.543 24.4218 282.976 19.0406 276.172 12.7897C269.369 6.53874 263.679 1.12047 263.529 0.749098C263.373 0.362978 263.602 0.0738664 264.065 0.0738664C264.944 0.0738664 290.28 23.3589 290.559 24.4238C290.781 25.2693 278.006 38.0739 276.941 38.0739C276.493 38.0739 267.289 29.6857 256.487 19.4334ZM85.5945 7.44887C79.1183 1.40621 78.0012 0.0738664 79.4111 0.0738664C79.8789 0.0738664 82.9732 2.58523 86.2871 5.65468L92.3125 11.2355L98.3379 5.65468C101.652 2.58523 104.746 0.0738664 105.214 0.0738664C105.864 0.0738664 105.946 0.280256 105.562 0.948866C104.735 2.38822 93.0583 13.0739 92.3125 13.0739C91.9333 13.0739 88.9102 10.5426 85.5945 7.44887ZM190.532 6.90428C186.993 3.51101 184.098 0.58601 184.098 0.40428C184.098 -0.86219 186.584 0.835817 191.787 5.65468L197.813 11.2355L203.838 5.65468C209.041 0.835817 211.528 -0.86219 211.528 0.40428C211.528 1.13168 198.6 13.0739 197.813 13.0739C197.348 13.0739 194.072 10.2976 190.532 6.90428ZM296.032 6.90428C292.493 3.51101 289.598 0.58601 289.598 0.40428C289.598 -0.86219 292.084 0.835817 297.287 5.65468L303.313 11.2355L309.338 5.65468C315.028 0.384557 316.5 -0.651141 316.5 0.615889C316.5 1.50319 304.268 13.0739 303.33 13.0739C302.856 13.0739 299.572 10.2976 296.032 6.90428Z" fill="#B961FF" fill-opacity="0.27"/>
</svg>
