<svg width="52" height="52" viewBox="0 0 52 52" fill="none" xmlns="http://www.w3.org/2000/svg">
<rect x="1" y="1" width="50" height="50" rx="10" stroke="#B961FF" stroke-width="2"/>
<g filter="url(#filter0_d_425_1347)">
<path d="M26 26C29.4518 26 32.25 23.2018 32.25 19.75C32.25 16.2982 29.4518 13.5 26 13.5C22.5482 13.5 19.75 16.2982 19.75 19.75C19.75 23.2018 22.5482 26 26 26Z" stroke="#B961FF" stroke-width="3"/>
<path d="M32.25 38.5H17.5825C17.228 38.5001 16.8775 38.4247 16.5543 38.279C16.2311 38.1333 15.9426 37.9205 15.708 37.6547C15.4733 37.389 15.2979 37.0764 15.1933 36.7376C15.0887 36.3989 15.0573 36.0418 15.1012 35.69L15.5887 31.785C15.7021 30.8778 16.143 30.0432 16.8285 29.4383C17.5141 28.8333 18.397 28.4996 19.3112 28.5H19.75M34.75 27.25V34.75M31 31H38.5" stroke="#B961FF" stroke-width="3" stroke-linecap="round" stroke-linejoin="round"/>
</g>
<defs>
<filter id="filter0_d_425_1347" x="4" y="4" width="44" height="44" filterUnits="userSpaceOnUse" color-interpolation-filters="sRGB">
<feFlood flood-opacity="0" result="BackgroundImageFix"/>
<feColorMatrix in="SourceAlpha" type="matrix" values="0 0 0 0 0 0 0 0 0 0 0 0 0 0 0 0 0 0 127 0" result="hardAlpha"/>
<feOffset/>
<feGaussianBlur stdDeviation="3.5"/>
<feComposite in2="hardAlpha" operator="out"/>
<feColorMatrix type="matrix" values="0 0 0 0 0.726833 0 0 0 0 0.379167 0 0 0 0 1 0 0 0 0.45 0"/>
<feBlend mode="normal" in2="BackgroundImageFix" result="effect1_dropShadow_425_1347"/>
<feBlend mode="normal" in="SourceGraphic" in2="effect1_dropShadow_425_1347" result="shape"/>
</filter>
</defs>
</svg>
