<svg xmlns="http://www.w3.org/2000/svg" viewBox="0 0 390.44 390.44"><defs><style>.cls-1{fill:#fff0e4;}.cls-2{fill:#342006;}.cls-3{fill:#1c191a;}.cls-4{fill:#c69c73;}.cls-5{fill:#88c640;}.cls-6{fill:#1a1a1a;}.cls-7{fill:#8ec83d;}.cls-8{fill:#1a1a19;}</style></defs><title>Recurso 3</title><g id="Capa_2" data-name="Capa 2"><g id="Capa_2-2" data-name="Capa 2"><circle class="cls-1" cx="195.22" cy="195.22" r="195.22"/><path class="cls-2" d="M104.87,161.4c-2.11,0-3-2.31-2.79-4.41a1,1,0,0,0,.48,0,1.17,1.17,0,0,0,.89-1.4,1.15,1.15,0,0,0-.65-.81,2.35,2.35,0,0,1,2-1.17C109,153.61,108.76,161.4,104.87,161.4Z"/><path class="cls-3" d="M70.49,181.55l28.35-74.3h24.38l27.83,74.3h-22l-3.32-9.83a20.62,20.62,0,0,0,6-4.6c2-2.61-.89-6.25-.89-6.25s6.65-.61,7-7-6.13-6.77-6.13-6.77,1-7.79-9.06-13.15-14.94-3.51-16.85-7.15a4.4,4.4,0,0,0-.56,4.51s-4.51-2.42-4.34-4.85c0,0-1.57,4.47.17,7.49,0,0-5.53,3.66-7.83,6.81s-.72,5.28-1.61,6-6.81,2.21-6.81,7.15,3.32,8.17,8.17,6.38a4.44,4.44,0,0,0-2.38,4.17c0,4.3,5.87,7.23,5.87,7.23l-4.43,9.92Z"/><path class="cls-2" d="M117.65,161.4c2.11,0,3-2.31,2.79-4.41a1,1,0,0,1-.48,0,1.17,1.17,0,0,1-.89-1.4,1.15,1.15,0,0,1,.65-.81,2.35,2.35,0,0,0-2-1.17C113.48,153.61,113.76,161.4,117.65,161.4Z"/><path class="cls-4" d="M126.15,160.87c7.54-10.22-.76-19.66-6.51-19.66a9.28,9.28,0,0,0-8,4s-2.49-4-8.93-4c-4.54,0-8.94,5.55-8.94,11a14.55,14.55,0,0,0,2.72,8.72s-4.25-.38-4.25,3.66S97,170.7,97,170.7h28.09s5.62-2.53,5.62-6.22S126.15,160.87,126.15,160.87Zm-15,.32s1.79-.42,1.79.95-1.79,2.11-1.79,2.11Zm-.44,0v3.06s-1.79-.73-1.79-2.11S110.68,161.19,110.68,161.19Zm-6.36.32c-5.09,0-4.74-10.22-.11-10.22C109.78,151.29,109.42,161.51,104.32,161.51Zm9.84,5.18a3.73,3.73,0,0,1-3.39,1.53c-2.55,0-3.15-1.54-3.17-1.61a.5.5,0,0,1,.3-.64.51.51,0,0,1,.64.29c0,.06.43,1,2.23,1a2.86,2.86,0,0,0,2.53-1A.5.5,0,0,1,114,166,.49.49,0,0,1,114.16,166.69Zm4-5.18c-5.09,0-5.46-10.22.11-10.22C122.93,151.29,123.28,161.51,118.19,161.51Z"/><path class="cls-4" d="M90.09,151.29a4.94,4.94,0,0,0-1.79,1.82,4.06,4.06,0,0,0-.36,2.34,3.17,3.17,0,0,0,.91,2.09,1.69,1.69,0,0,0,2.2,0,2,2,0,0,1-1.11.91,1.89,1.89,0,0,1-1.55-.23A3.47,3.47,0,0,1,87,155.56a4,4,0,0,1,.7-2.86A3.54,3.54,0,0,1,90.09,151.29Z"/><path class="cls-4" d="M133.25,151.81a3.54,3.54,0,0,1,2.44,1.41,4,4,0,0,1,.7,2.86A3.47,3.47,0,0,1,135,158.7a1.89,1.89,0,0,1-1.55.23,2,2,0,0,1-1.11-.91,1.69,1.69,0,0,0,2.2,0,3.17,3.17,0,0,0,.91-2.09,4.06,4.06,0,0,0-.36-2.34A5,5,0,0,0,133.25,151.81Z"/><path class="cls-3" d="M187.3,126.78c-8,0-12.13,4.41-14.17,8.24v-8.24H156.28v70.6h16.85V175.29a21.35,21.35,0,0,0,16.6,7.41c11.17,0,22.59-9.13,22.59-28.47S201.54,126.78,187.3,126.78Zm-2.81,41.44c-9.63,0-11.36-6.14-11.36-6.14V146.15a14.26,14.26,0,0,1,10.47-4.94c8,0,12.09,6.06,12.09,11.23S194.13,168.22,184.49,168.22Z"/><path class="cls-3" d="M319.94,254.74c0-19.34-11.42-28.47-22.59-28.47a21.33,21.33,0,0,0-16.6,7.41V207.21H263.9v75h16.85V274c2,3.83,6.12,8.24,14.17,8.24C309.15,282.19,319.94,274.08,319.94,254.74Zm-16.64,1.79c0,5.17-4,11.23-12.08,11.23a14.26,14.26,0,0,1-10.47-4.94V246.89s1.72-6.14,11.36-6.14S303.3,251.36,303.3,256.53Z"/><path class="cls-3" d="M249.9,169.76c-11.79,0-14.21-9.91-14.21-9.91h38.42c0-26.3-14.72-33.75-26.47-33.75s-28.59,7.45-29.19,27.36c-.57,19.21,14,29.24,29.36,29.24S270,175,270,175l-7.79-10.6A18,18,0,0,1,249.9,169.76Zm-3.63-30c11.5,0,12,9.58,12,9.58H235.94S236.55,139.8,246.27,139.8Z"/><polygon class="cls-3" points="201.3 283.19 147.37 283.19 147.37 223.12 149.37 223.12 149.37 281.19 201.3 281.19 201.3 283.19"/><rect class="cls-5" x="145.56" y="230.89" width="6.13" height="6.13"/><path class="cls-3" d="M152.69,238h-8.13v-8.13h8.13Zm-6.13-2h4.13v-4.13h-4.13Z"/><rect class="cls-3" x="151.69" y="232.95" width="7.6" height="2"/><path class="cls-3" d="M171.92,218H157.75a5.92,5.92,0,0,1-5.91-5.91v-1a5.92,5.92,0,0,1,5.91-5.91h14.17a5.92,5.92,0,0,1,5.91,5.91v1A5.92,5.92,0,0,1,171.92,218Zm-14.17-10.34a3.41,3.41,0,0,0-3.41,3.41v1a3.41,3.41,0,0,0,3.41,3.41h14.17a3.41,3.41,0,0,0,3.41-3.41v-1a3.41,3.41,0,0,0-3.41-3.41Z"/><path class="cls-6" d="M195.54,267H174.41V216.74H156.28v52a8.68,8.68,0,0,0,8.68,8.68h30.58a5.26,5.26,0,0,0,0-10.51Z"/><path class="cls-7" d="M165,274.07h0a6.32,6.32,0,0,1-6.32-6.32V241.29h12.64v26.46A6.32,6.32,0,0,1,165,274.07Z"/><path class="cls-8" d="M213.73,246.14l-6-11s5.3-8.69,24.13-8.69,24.76,10.66,24.76,17.49v38.22H239.9V247.1s-2.11-6.57-11.49-6.57A21.17,21.17,0,0,0,213.73,246.14Z"/><path class="cls-8" d="M241.81,256c-.7-.38-6.12-7.91-19.14-7.91s-17.62,9.45-17.62,17.36,5.36,16.77,18.38,16.77,17.49-8.12,17.49-8.12V268a18.85,18.85,0,0,1-11,4c-6.25,0-8.68-3.59-8.68-6.81s4.09-6.47,9.06-6.47,11.49,5,11.49,5Z"/></g></g></svg>