<?xml version="1.0" encoding="UTF-8"?>
<!DOCTYPE svg PUBLIC "-//W3C//DTD SVG 1.1//EN" "http://www.w3.org/Graphics/SVG/1.1/DTD/svg11.dtd">
<svg xmlns="http://www.w3.org/2000/svg" version="1.1" width="3300px" height="2550px" style="shape-rendering:geometricPrecision; text-rendering:geometricPrecision; image-rendering:optimizeQuality; fill-rule:evenodd; clip-rule:evenodd" xmlns:xlink="http://www.w3.org/1999/xlink">
<g><path style="opacity:0.991" fill="#000000" d="M 1963.5,1066.5 C 1995.87,1064.34 2022.37,1075.67 2043,1100.5C 2129.87,1225.07 2216.37,1349.91 2302.5,1475C 2255.5,1475.67 2208.5,1475.67 2161.5,1475C 2098.71,1387.72 2035.38,1300.89 1971.5,1214.5C 1908.04,1301.24 1844.71,1388.08 1781.5,1475C 1732.16,1475.83 1682.83,1475.67 1633.5,1474.5C 1721.33,1350.83 1809.17,1227.17 1897,1103.5C 1906.37,1092.46 1917.2,1083.29 1929.5,1076C 1940.35,1070.62 1951.68,1067.46 1963.5,1066.5 Z"/></g>
<g><path style="opacity:0.993" fill="#000000" d="M 2404.5,1066.5 C 2421.67,1065.3 2437.34,1069.46 2451.5,1079C 2536.5,1155.17 2621.5,1231.33 2706.5,1307.5C 2707.5,1229.5 2707.83,1151.5 2707.5,1073.5C 2745.5,1073.5 2783.5,1073.5 2821.5,1073.5C 2821.67,1188.83 2821.5,1304.17 2821,1419.5C 2813.23,1466.25 2785.73,1486.75 2738.5,1481C 2725.48,1478.16 2714.14,1472.16 2704.5,1463C 2622.63,1388.8 2540.46,1314.96 2458,1241.5C 2457.5,1319.5 2457.33,1397.5 2457.5,1475.5C 2419.5,1475.5 2381.5,1475.5 2343.5,1475.5C 2343.02,1358.48 2343.52,1241.48 2345,1124.5C 2350.63,1090.36 2370.47,1071.03 2404.5,1066.5 Z"/></g>
<g><path style="opacity:0.994" fill="#000000" d="M 557.5,1073.5 C 709.835,1073.17 862.168,1073.5 1014.5,1074.5C 987.954,1109.09 961.288,1143.59 934.5,1178C 886.501,1178.5 838.501,1178.67 790.5,1178.5C 790.5,1277.5 790.5,1376.5 790.5,1475.5C 748.833,1475.5 707.167,1475.5 665.5,1475.5C 665.5,1376.5 665.5,1277.5 665.5,1178.5C 602.83,1178.83 540.163,1178.5 477.5,1177.5C 504.175,1142.8 530.842,1108.14 557.5,1073.5 Z"/></g>
<g><path style="opacity:0.985" fill="#878887" d="M 1093.5,1073.5 C 1135.17,1073.33 1176.83,1073.5 1218.5,1074C 1191.83,1108.67 1165.17,1143.33 1138.5,1178C 1096.83,1178.83 1055.16,1178.67 1013.5,1177.5C 1040.18,1142.8 1066.84,1108.14 1093.5,1073.5 Z"/></g>
<g><path style="opacity:0.994" fill="#000000" d="M 1296.5,1073.5 C 1449.17,1073.33 1601.83,1073.5 1754.5,1074C 1727.83,1108.67 1701.17,1143.33 1674.5,1178C 1626.5,1178.5 1578.5,1178.67 1530.5,1178.5C 1530.5,1277.5 1530.5,1376.5 1530.5,1475.5C 1488.83,1475.5 1447.17,1475.5 1405.5,1475.5C 1405.5,1376.5 1405.5,1277.5 1405.5,1178.5C 1342.83,1178.83 1280.16,1178.5 1217.5,1177.5C 1243.88,1142.8 1270.22,1108.13 1296.5,1073.5 Z"/></g>
<g><path style="opacity:0.994" fill="#000000" d="M 1013.5,1220.5 C 1055.17,1220.5 1096.83,1220.5 1138.5,1220.5C 1138.5,1305.5 1138.5,1390.5 1138.5,1475.5C 1096.83,1475.5 1055.17,1475.5 1013.5,1475.5C 1013.5,1390.5 1013.5,1305.5 1013.5,1220.5 Z"/></g>
<g><path style="opacity:0.988" fill="#878887" d="M 1970.5,1286.5 C 1973.3,1287.71 1975.46,1289.71 1977,1292.5C 2021.04,1353.42 2065.21,1414.26 2109.5,1475C 2017.83,1475.83 1926.16,1475.67 1834.5,1474.5C 1880.27,1412.08 1925.6,1349.41 1970.5,1286.5 Z"/></g>
</svg>
