<svg id="eeee2178-c31c-4af7-afc5-408e6dabc15b" data-name="Layer 1" xmlns="http://www.w3.org/2000/svg" viewBox="0 0 40 40"><defs><style>.b16e810d-0782-4160-8279-9ee0219489d5{fill:#82cdfe;}.ac6ad427-88b9-4989-b8a6-aab8206d329e{fill:#5125ab;}.a5f9a928-18fb-4213-957b-0f2fb961b9f4{fill:#fff;}</style></defs><circle class="b16e810d-0782-4160-8279-9ee0219489d5" cx="20.01969" cy="19.97484" r="16.79527"/><path class="ac6ad427-88b9-4989-b8a6-aab8206d329e" d="M18.78118,39.38846c-.72238-.09883-1.44731-.18193-2.16674-.29891A19.29318,19.29318,0,0,1,1.07436,24.18309C-.43034,16.55182,1.8039,10.14024,7.68,5.02122c.46373-.404.79462-.42865,1.04477-.12059.25185.31016.14936.596-.33036,1.00108A17.4717,17.4717,0,0,0,1.82916,18.57186c-.4565,7.766,2.82487,13.62689,9.54093,17.49668A16.68727,16.68727,0,0,0,21.285,38.18773a17.84316,17.84316,0,0,0,14.70571-9.42918,17.06671,17.06671,0,0,0,2.18777-10.09013A17.89252,17.89252,0,0,0,29.54257,4.4466a17.2588,17.2588,0,0,0-8.11525-2.64242A18.10028,18.10028,0,0,0,10.857,4.19127c-.3006.17122-.59328.2463-.85417-.046a.50644.50644,0,0,1-.00422-.72051,1.114,1.114,0,0,1,.3013-.2224A18.88292,18.88292,0,0,1,17.74834.7431a18.86445,18.86445,0,0,1,14.008,3.8502,19.02465,19.02465,0,0,1,7.45477,12.80549c.06682.46024.11345.92342.16947,1.38523v2.42406c-.02149.09756-.04906.19423-.06353.29283-.13166.89729-.21521,1.80438-.39829,2.69094A19.3933,19.3933,0,0,1,23.37064,39.08951c-.71924.11668-1.44387.20009-2.166.299Z"/><path class="ac6ad427-88b9-4989-b8a6-aab8206d329e" d="M3.03425,20.04039a16.959,16.959,0,1,1,21.0369,16.41333,16.68624,16.68624,0,0,1-11.01791-.98312c-.10366-.04592-.20823-.09048-.30874-.14268a.56766.56766,0,1,1,.4701-1.02785c.73983.28569,1.4664.61655,2.22386.84412A15.81969,15.81969,0,1,0,4.50939,16.86C3.29372,23.46491,5.51322,28.8419,10.86227,32.914c.05018.0382.10356.07229.15278.11163a.58255.58255,0,0,1,.18141.8251.55212.55212,0,0,1-.83334.09738c-.55617-.41393-1.11635-.82721-1.63563-1.28525A16.95989,16.95989,0,0,1,3.03425,20.04039Z"/><path class="a5f9a928-18fb-4213-957b-0f2fb961b9f4" d="M19.99546,15.55509c-1.05041,1.05047-2.06661,2.06678-3.08286,3.083-.54212.54212-.72657.54088-1.2762-.00852-.607-.60678-1.21591-1.21174-1.8203-1.82115-.36666-.36971-.37014-.63325-.00042-1.004q2.83414-2.84219,5.67506-5.67762c.36873-.36815.63438-.37108,1.00308-.00325q2.84154,2.83476,5.67559,5.677c.36988.37084.37006.6387.006,1.00672q-.9719.98259-1.9542,1.95488c-.37636.37314-.65216.369-1.0349-.013C22.133,17.69769,21.08241,16.64351,19.99546,15.55509Zm.00822-4.233-4.9638,4.96347,1.31152,1.31554c1.0013-1.00412,2.0343-2.041,3.06852-3.07667.455-.45567.68907-.45813,1.13736-.0106q1.43363,1.4312,2.865,2.86461c.09414.09406.193.18343.253.24031l1.32416-1.30849Z"/><path class="a5f9a928-18fb-4213-957b-0f2fb961b9f4" d="M20.00868,24.43193c1.06646-1.07023,2.09913-2.10776,3.13328-3.1438.44913-.44995.68829-.44871,1.14161.00321q.93866.9358,1.87445,1.87449c.38479.38763.38813.64776.00351,1.03334q-2.82164,2.82863-5.64921,5.65128c-.3876.38693-.6485.38758-1.03066.006q-2.8271-2.82315-5.64919-5.65132c-.39039-.39123-.39138-.64914-.01059-1.03175q.97506-.97972,1.95721-1.95235a.604.604,0,0,1,1.00679.00774q1.46288,1.45593,2.91952,2.91814C19.79287,24.23427,19.88553,24.31647,20.00868,24.43193ZM15.003,23.6385l4.98637,4.987,4.9677-4.96741-1.27558-1.2887c-.074.06949-.16681.152-.25446.23954Q21.98225,24.0525,20.53839,25.497c-.41815.41716-.6698.4182-1.08311.00573q-1.44567-1.44272-2.88864-2.88816c-.094-.09388-.19266-.183-.264-.25054Z"/><path class="a5f9a928-18fb-4213-957b-0f2fb961b9f4" d="M22.79594,19.99336a2.01339,2.01339,0,0,1-.24506.4333q-1.043,1.06838-2.10815,2.1151a.57441.57441,0,0,1-.89635.00209Q18.48347,21.49519,17.4359,20.431a.56325.56325,0,0,1-.0026-.86721q1.04616-1.06536,2.10965-2.11366a.57549.57549,0,0,1,.89729-.00373q1.06407,1.04746,2.10769,2.11556A2.06382,2.06382,0,0,1,22.79594,19.99336Zm-4.10665-.0363,1.30145,1.3088,1.27221-1.2672-1.30524-1.31484Z"/><path class="a5f9a928-18fb-4213-957b-0f2fb961b9f4" d="M12.59221,22.78067a2.23005,2.23005,0,0,1-.43413-.25837q-1.05477-1.03215-2.08884-2.08541a.55506.55506,0,0,1,.00969-.89248q1.02126-1.039,2.06015-2.06065a.55665.55665,0,0,1,.894-.00624q1.04,1.02021,2.06053,2.06015a.57688.57688,0,0,1-.00951.92565q-1.00887,1.02464-2.03577,2.03137A2.59856,2.59856,0,0,1,12.59221,22.78067Zm-1.2819-2.78931,1.25859,1.25931,1.28948-1.276L12.59984,18.711Z"/><path class="a5f9a928-18fb-4213-957b-0f2fb961b9f4" d="M30.18156,19.99271a2.45023,2.45023,0,0,1-.27949.45771q-1.01785,1.0423-2.0587,2.062a.55484.55484,0,0,1-.894-.00219Q25.91053,21.48884,24.88888,20.45a.57592.57592,0,0,1,.01681-.924q1.01011-1.02345,2.03371-2.03354a.56454.56454,0,0,1,.92138.00444q1.03937,1.02087,2.05722,2.0635A2.32969,2.32969,0,0,1,30.18156,19.99271Zm-4.06328-.02187,1.23811,1.27748L28.63473,19.974l-1.2521-1.25176Z"/><polygon class="ac6ad427-88b9-4989-b8a6-aab8206d329e" points="10.363 33.948 12.744 35.328 13.215 34.3 11.015 33.026 10.363 33.948"/></svg>