<?xml version="1.0" standalone="no"?>
<!DOCTYPE svg PUBLIC "-//W3C//DTD SVG 20010904//EN"
 "http://www.w3.org/TR/2001/REC-SVG-20010904/DTD/svg10.dtd">
<svg version="1.0" xmlns="http://www.w3.org/2000/svg"
 width="1010.000000pt" height="1010.000000pt" viewBox="0 0 1010.000000 1010.000000"
 preserveAspectRatio="xMidYMid meet">
<metadata>
Created by potrace 1.14, written by Peter Selinger 2001-2017
</metadata>
<g transform="translate(0.000000,1010.000000) scale(0.100000,-0.100000)"
fill="#000000" stroke="none">
<path d="M888 7412 c-62 -81 -116 -151 -120 -157 -4 -5 -24 -30 -43 -55 -45
-58 -37 -48 -135 -175 -46 -60 -114 -148 -150 -195 -36 -47 -104 -134 -150
-195 -46 -60 -87 -112 -90 -115 -3 -3 -17 -21 -30 -40 -14 -19 -32 -44 -42
-54 -10 -11 -30 -38 -45 -60 -16 -23 -38 -51 -50 -64 -13 -13 -23 -24 -23 -26
0 -2 520 -4 1156 -4 635 0 1158 -3 1162 -7 4 -3 8 -37 10 -73 1 -37 4 -101 6
-142 3 -41 7 -124 10 -185 4 -60 8 -146 11 -190 2 -44 7 -129 10 -190 3 -60 7
-148 10 -195 8 -152 16 -303 20 -385 4 -76 7 -145 20 -380 4 -55 8 -138 10
-185 2 -47 5 -85 5 -85 1 0 3 -43 5 -95 2 -52 6 -140 10 -195 14 -255 16 -296
20 -380 3 -49 7 -128 9 -175 3 -47 8 -132 11 -190 3 -58 7 -141 10 -185 2 -44
7 -138 11 -210 3 -71 8 -148 9 -170 2 -22 4 -55 4 -74 l1 -33 43 41 c50 49
121 116 287 271 67 63 144 135 170 160 26 25 105 99 175 165 70 66 147 138
170 160 24 22 92 86 151 142 60 56 134 126 165 155 31 29 82 76 112 104 54 50
55 53 55 105 0 30 1 59 2 64 1 6 1 15 0 20 -3 12 -3 76 0 90 1 6 2 14 1 19 -1
6 -2 114 -1 240 0 127 2 626 3 1109 l2 877 55 0 c117 1 864 -1 1750 -5 l925
-3 613 613 c337 337 607 614 600 616 -7 2 -158 4 -335 4 -178 0 -323 3 -323 7
0 4 -12 3 -27 0 -24 -6 -88 -8 -103 -2 -17 6 -60 4 -60 -3 0 -4 -5 -5 -10 -2
-6 4 -237 8 -513 11 -276 2 -722 6 -992 9 -269 3 -749 8 -1065 11 -444 4
-1202 12 -1330 14 -8 0 -34 0 -58 0 -23 0 -47 2 -52 5 -5 3 -11 1 -15 -5 -4
-6 -11 -8 -16 -5 -5 4 -235 8 -512 11 -276 2 -703 6 -949 8 l-447 4 -113 -146z"/>
<path d="M8956 7492 l-969 -2 -79 -78 c-153 -149 -294 -285 -813 -787 -55 -53
-182 -176 -283 -273 -101 -97 -233 -225 -294 -284 -61 -60 -115 -108 -119
-108 -9 0 -19 10 -89 91 -30 35 -72 81 -92 102 l-38 40 -1015 -1 c-559 0
-1018 -2 -1020 -3 -5 -6 559 -575 649 -654 43 -39 97 -87 120 -108 97 -91 256
-231 284 -252 7 -5 22 -18 33 -27 10 -10 22 -18 25 -18 3 0 30 -20 60 -44 l54
-45 -87 -67 c-49 -37 -95 -75 -104 -83 -9 -9 -31 -27 -49 -41 -17 -14 -41 -34
-54 -45 -12 -11 -48 -42 -81 -70 -32 -27 -80 -70 -106 -95 -26 -25 -56 -52
-66 -60 -10 -9 -65 -58 -123 -110 -58 -52 -115 -103 -128 -115 -13 -11 -47
-42 -76 -70 -29 -27 -95 -88 -147 -135 -51 -47 -123 -113 -159 -146 -36 -34
-89 -83 -119 -110 -30 -27 -71 -65 -92 -84 -20 -19 -59 -55 -86 -80 -27 -25
-100 -92 -162 -150 -63 -58 -128 -118 -145 -133 -17 -15 -73 -67 -125 -115
-51 -48 -108 -100 -126 -117 -18 -16 -76 -70 -130 -120 -139 -129 -169 -155
-177 -155 -5 0 -8 -7 -8 -15 0 -8 -4 -15 -9 -15 -5 0 -31 -21 -59 -48 -28 -26
-86 -79 -129 -119 -43 -39 -109 -101 -148 -136 l-69 -65 950 0 951 0 89 84
c49 46 92 84 97 84 4 0 7 7 7 15 0 8 4 15 8 15 5 0 34 24 64 53 31 28 109 102
173 162 65 61 137 128 160 150 107 101 294 277 330 310 137 128 435 409 532
502 25 24 46 43 47 43 1 0 51 47 111 105 61 58 114 105 118 105 5 0 63 -54
130 -119 132 -128 205 -199 541 -524 120 -117 262 -255 316 -307 54 -52 202
-196 330 -320 128 -124 263 -255 300 -291 l68 -67 1076 0 c592 0 1076 2 1076
5 0 2 -12 15 -27 29 -32 29 -272 255 -378 356 -38 36 -83 79 -100 94 -45 41
-268 250 -345 324 -38 36 -110 104 -162 151 -51 48 -125 118 -165 155 -40 38
-118 112 -174 164 -56 52 -123 115 -149 140 -26 25 -94 88 -150 140 -57 52
-120 111 -140 130 -21 19 -77 71 -125 115 -48 44 -104 96 -124 115 -20 19 -86
80 -146 135 -59 55 -124 114 -142 132 -19 17 -68 62 -110 100 -42 37 -84 75
-92 83 -21 20 -156 128 -204 164 l-38 28 38 30 c21 16 53 42 72 56 42 33 109
91 133 115 10 9 22 17 27 17 5 0 11 4 13 8 2 5 35 35 73 68 104 87 125 105
168 147 22 20 41 37 43 37 2 0 12 8 22 18 15 14 79 71 208 187 12 11 60 55
107 98 47 43 95 87 106 96 19 17 182 165 242 221 15 14 64 59 110 100 45 41
96 89 114 105 35 33 191 176 234 214 14 13 69 62 121 111 108 99 116 106 236
215 48 44 106 97 128 117 23 21 63 58 90 83 28 25 53 45 58 45 4 0 8 7 8 15 0
8 3 15 8 15 4 0 27 18 52 40 25 22 48 40 53 40 4 0 7 7 7 15 0 8 4 15 8 15 5
0 31 21 58 46 27 25 60 55 74 67 37 32 42 44 22 48 -9 2 -453 3 -986 1z"/>
<path d="M5677 3153 c-317 -317 -575 -578 -573 -580 4 -5 2297 -5 2301 -1 2 2
-257 263 -574 581 l-577 577 -577 -577z"/>
</g>
</svg>
