<svg width="1440" height="465" viewBox="0 0 1440 465" fill="none" xmlns="http://www.w3.org/2000/svg">
<mask id="mask0_53_626" style="mask-type:alpha" maskUnits="userSpaceOnUse" x="0" y="0" width="1440" height="465">
<rect width="1440" height="465" fill="url(#paint0_linear_53_626)"/>
</mask>
<g mask="url(#mask0_53_626)">
<circle cx="1271.5" cy="516.5" r="460.5" fill="#003DF1" fill-opacity="0.1"/>
<circle cx="50.5" cy="44" r="116.5" fill="#5582FF"/>
<circle cx="656" cy="503" r="214.5" stroke="#D0DBFF"/>
<circle cx="1156" cy="-12" r="137.5" stroke="#D0DBFF"/>
<rect x="900" y="189" width="5.46269" height="5.46269" rx="2.58729" fill="#7D97F1"/>
<rect x="921.852" y="189" width="5.46269" height="5.46269" rx="2.58729" fill="#7D97F1"/>
<rect x="943.702" y="189" width="5.46269" height="5.46269" rx="2.58729" fill="#7D97F1"/>
<rect x="965.552" y="189" width="5.46269" height="5.46269" rx="2.58729" fill="#7D97F1"/>
<rect x="987.402" y="189" width="5.46269" height="5.46269" rx="2.58729" fill="#7D97F1"/>
<rect x="1009.25" y="189" width="5.46269" height="5.46269" rx="2.58729" fill="#7D97F1"/>
<rect x="1031.11" y="189" width="5.46269" height="5.46269" rx="2.58729" fill="#7D97F1"/>
<rect x="1052.96" y="189" width="5.46269" height="5.46269" rx="2.58729" fill="#7D97F1"/>
<rect x="1074.81" y="189" width="5.46269" height="5.46269" rx="2.58729" fill="#7D97F1"/>
<rect x="1096.66" y="189" width="5.46269" height="5.46269" rx="2.58729" fill="#7D97F1"/>
<rect x="900" y="210.852" width="5.46269" height="5.46269" rx="2.58729" fill="#7D97F1"/>
<rect x="921.852" y="210.852" width="5.46269" height="5.46269" rx="2.58729" fill="#7D97F1"/>
<rect x="943.702" y="210.852" width="5.46269" height="5.46269" rx="2.58729" fill="#7D97F1"/>
<rect x="965.552" y="210.852" width="5.46269" height="5.46269" rx="2.58729" fill="#7D97F1"/>
<rect x="987.402" y="210.852" width="5.46269" height="5.46269" rx="2.58729" fill="#7D97F1"/>
<rect x="1009.25" y="210.852" width="5.46269" height="5.46269" rx="2.58729" fill="#7D97F1"/>
<rect x="1031.11" y="210.852" width="5.46269" height="5.46269" rx="2.58729" fill="#7D97F1"/>
<rect x="1052.96" y="210.852" width="5.46269" height="5.46269" rx="2.58729" fill="#7D97F1"/>
<rect x="1074.81" y="210.852" width="5.46269" height="5.46269" rx="2.58729" fill="#7D97F1"/>
<rect x="1096.66" y="210.852" width="5.46269" height="5.46269" rx="2.58729" fill="#7D97F1"/>
<rect x="900" y="232.701" width="5.46269" height="5.46269" rx="2.58729" fill="#7D97F1"/>
<rect x="921.852" y="232.701" width="5.46269" height="5.46269" rx="2.58729" fill="#7D97F1"/>
<rect x="943.702" y="232.701" width="5.46269" height="5.46269" rx="2.58729" fill="#7D97F1"/>
<rect x="965.552" y="232.701" width="5.46269" height="5.46269" rx="2.58729" fill="#7D97F1"/>
<rect x="987.402" y="232.701" width="5.46269" height="5.46269" rx="2.58729" fill="#7D97F1"/>
<rect x="1009.25" y="232.701" width="5.46269" height="5.46269" rx="2.58729" fill="#7D97F1"/>
<rect x="1031.11" y="232.701" width="5.46269" height="5.46269" rx="2.58729" fill="#7D97F1"/>
<rect x="1052.96" y="232.701" width="5.46269" height="5.46269" rx="2.58729" fill="#7D97F1"/>
<rect x="1074.81" y="232.701" width="5.46269" height="5.46269" rx="2.58729" fill="#7D97F1"/>
<rect x="1096.66" y="232.701" width="5.46269" height="5.46269" rx="2.58729" fill="#7D97F1"/>
<rect x="900" y="254.553" width="5.46269" height="5.46269" rx="2.58729" fill="#7D97F1"/>
<rect x="921.852" y="254.553" width="5.46269" height="5.46269" rx="2.58729" fill="#7D97F1"/>
<rect x="943.702" y="254.553" width="5.46269" height="5.46269" rx="2.58729" fill="#7D97F1"/>
<rect x="965.552" y="254.553" width="5.46269" height="5.46269" rx="2.58729" fill="#7D97F1"/>
<rect x="987.402" y="254.553" width="5.46269" height="5.46269" rx="2.58729" fill="#7D97F1"/>
<rect x="1009.25" y="254.553" width="5.46269" height="5.46269" rx="2.58729" fill="#7D97F1"/>
<rect x="1031.11" y="254.553" width="5.46269" height="5.46269" rx="2.58729" fill="#7D97F1"/>
<rect x="1052.96" y="254.553" width="5.46269" height="5.46269" rx="2.58729" fill="#7D97F1"/>
<rect x="1074.81" y="254.553" width="5.46269" height="5.46269" rx="2.58729" fill="#7D97F1"/>
<rect x="1096.66" y="254.553" width="5.46269" height="5.46269" rx="2.58729" fill="#7D97F1"/>
<rect x="900" y="276.402" width="5.46269" height="5.46269" rx="2.58729" fill="#7D97F1"/>
<rect x="921.852" y="276.402" width="5.46269" height="5.46269" rx="2.58729" fill="#7D97F1"/>
<rect x="943.702" y="276.402" width="5.46269" height="5.46269" rx="2.58729" fill="#7D97F1"/>
<rect x="965.552" y="276.402" width="5.46269" height="5.46269" rx="2.58729" fill="#7D97F1"/>
<rect x="987.402" y="276.402" width="5.46269" height="5.46269" rx="2.58729" fill="#7D97F1"/>
<rect x="1009.25" y="276.402" width="5.46269" height="5.46269" rx="2.58729" fill="#7D97F1"/>
<rect x="1031.11" y="276.402" width="5.46269" height="5.46269" rx="2.58729" fill="#7D97F1"/>
<rect x="1052.96" y="276.402" width="5.46269" height="5.46269" rx="2.58729" fill="#7D97F1"/>
<rect x="1074.81" y="276.402" width="5.46269" height="5.46269" rx="2.58729" fill="#7D97F1"/>
<rect x="1096.66" y="276.402" width="5.46269" height="5.46269" rx="2.58729" fill="#7D97F1"/>
<rect x="900" y="298.254" width="5.46269" height="5.46269" rx="2.58729" fill="#7D97F1"/>
<rect x="921.852" y="298.254" width="5.46269" height="5.46269" rx="2.58729" fill="#7D97F1"/>
<rect x="943.702" y="298.254" width="5.46269" height="5.46269" rx="2.58729" fill="#7D97F1"/>
<rect x="965.552" y="298.254" width="5.46269" height="5.46269" rx="2.58729" fill="#7D97F1"/>
<rect x="987.402" y="298.254" width="5.46269" height="5.46269" rx="2.58729" fill="#7D97F1"/>
<rect x="1009.25" y="298.254" width="5.46269" height="5.46269" rx="2.58729" fill="#7D97F1"/>
<rect x="1031.11" y="298.254" width="5.46269" height="5.46269" rx="2.58729" fill="#7D97F1"/>
<rect x="1052.96" y="298.254" width="5.46269" height="5.46269" rx="2.58729" fill="#7D97F1"/>
<rect x="1074.81" y="298.254" width="5.46269" height="5.46269" rx="2.58729" fill="#7D97F1"/>
<rect x="1096.66" y="298.254" width="5.46269" height="5.46269" rx="2.58729" fill="#7D97F1"/>
<rect x="900" y="320.104" width="5.46269" height="5.46269" rx="2.58729" fill="#7D97F1"/>
<rect x="900" y="341.179" width="5.46269" height="5.46269" rx="2.58729" fill="#7D97F1"/>
<rect x="900" y="362.252" width="5.46269" height="5.46269" rx="2.58729" fill="#7D97F1"/>
<rect x="900" y="383.328" width="5.46269" height="5.46269" rx="2.58729" fill="#7D97F1"/>
<rect x="921.852" y="320.104" width="5.46269" height="5.46269" rx="2.58729" fill="#7D97F1"/>
<rect x="921.852" y="341.179" width="5.46269" height="5.46269" rx="2.58729" fill="#7D97F1"/>
<rect x="921.852" y="362.252" width="5.46269" height="5.46269" rx="2.58729" fill="#7D97F1"/>
<rect x="921.852" y="383.328" width="5.46269" height="5.46269" rx="2.58729" fill="#7D97F1"/>
<rect x="943.702" y="320.104" width="5.46269" height="5.46269" rx="2.58729" fill="#7D97F1"/>
<rect x="943.702" y="341.179" width="5.46269" height="5.46269" rx="2.58729" fill="#7D97F1"/>
<rect x="943.702" y="362.252" width="5.46269" height="5.46269" rx="2.58729" fill="#7D97F1"/>
<rect x="943.702" y="383.328" width="5.46269" height="5.46269" rx="2.58729" fill="#7D97F1"/>
<rect x="965.552" y="320.104" width="5.46269" height="5.46269" rx="2.58729" fill="#7D97F1"/>
<rect x="965.552" y="341.179" width="5.46269" height="5.46269" rx="2.58729" fill="#7D97F1"/>
<rect x="965.552" y="362.252" width="5.46269" height="5.46269" rx="2.58729" fill="#7D97F1"/>
<rect x="965.552" y="383.328" width="5.46269" height="5.46269" rx="2.58729" fill="#7D97F1"/>
<rect x="987.402" y="320.104" width="5.46269" height="5.46269" rx="2.58729" fill="#7D97F1"/>
<rect x="987.402" y="341.179" width="5.46269" height="5.46269" rx="2.58729" fill="#7D97F1"/>
<rect x="987.402" y="362.252" width="5.46269" height="5.46269" rx="2.58729" fill="#7D97F1"/>
<rect x="987.402" y="383.328" width="5.46269" height="5.46269" rx="2.58729" fill="#7D97F1"/>
<rect x="1009.25" y="320.104" width="5.46269" height="5.46269" rx="2.58729" fill="#7D97F1"/>
<rect x="1009.25" y="341.179" width="5.46269" height="5.46269" rx="2.58729" fill="#7D97F1"/>
<rect x="1009.25" y="362.252" width="5.46269" height="5.46269" rx="2.58729" fill="#7D97F1"/>
<rect x="1009.25" y="383.328" width="5.46269" height="5.46269" rx="2.58729" fill="#7D97F1"/>
<rect x="1031.11" y="320.104" width="5.46269" height="5.46269" rx="2.58729" fill="#7D97F1"/>
<rect x="1031.11" y="341.179" width="5.46269" height="5.46269" rx="2.58729" fill="#7D97F1"/>
<rect x="1031.11" y="362.252" width="5.46269" height="5.46269" rx="2.58729" fill="#7D97F1"/>
<rect x="1031.11" y="383.328" width="5.46269" height="5.46269" rx="2.58729" fill="#7D97F1"/>
<rect x="1052.96" y="320.104" width="5.46269" height="5.46269" rx="2.58729" fill="#7D97F1"/>
<rect x="1052.96" y="341.179" width="5.46269" height="5.46269" rx="2.58729" fill="#7D97F1"/>
<rect x="1052.96" y="362.252" width="5.46269" height="5.46269" rx="2.58729" fill="#7D97F1"/>
<rect x="1052.96" y="383.328" width="5.46269" height="5.46269" rx="2.58729" fill="#7D97F1"/>
<rect x="1074.81" y="320.104" width="5.46269" height="5.46269" rx="2.58729" fill="#7D97F1"/>
<rect x="1074.81" y="341.179" width="5.46269" height="5.46269" rx="2.58729" fill="#7D97F1"/>
<rect x="1074.81" y="362.252" width="5.46269" height="5.46269" rx="2.58729" fill="#7D97F1"/>
<rect x="1074.81" y="383.328" width="5.46269" height="5.46269" rx="2.58729" fill="#7D97F1"/>
<rect x="1096.66" y="320.104" width="5.46269" height="5.46269" rx="2.58729" fill="#7D97F1"/>
<rect x="1096.66" y="341.179" width="5.46269" height="5.46269" rx="2.58729" fill="#7D97F1"/>
<rect x="1096.66" y="362.252" width="5.46269" height="5.46269" rx="2.58729" fill="#7D97F1"/>
<rect x="1096.66" y="383.328" width="5.46269" height="5.46269" rx="2.58729" fill="#7D97F1"/>
</g>
<defs>
<linearGradient id="paint0_linear_53_626" x1="1440" y1="270" x2="-11" y2="233" gradientUnits="userSpaceOnUse">
<stop stop-color="#0ACFFE"/>
<stop offset="1" stop-color="#495AFF"/>
</linearGradient>
</defs>
</svg>
