<svg width="20" height="20" viewBox="0 0 20 20" fill="none" xmlns="http://www.w3.org/2000/svg">
<path d="M10 0.3125C4.47714 0.3125 0 4.64973 0 10C0 15.3503 4.47714 19.6875 10 19.6875C15.5229 19.6875 20 15.3503 20 10C20 4.64973 15.5229 0.3125 10 0.3125ZM14.6352 6.90078C14.4847 8.43262 13.8335 12.1499 13.5021 13.8656C13.3619 14.5916 13.0859 14.835 12.8187 14.8588C12.2381 14.9106 11.797 14.487 11.2346 14.1298C10.3544 13.5709 9.85722 13.223 9.00286 12.6776C8.01556 12.0473 8.6556 11.7011 9.21827 11.1346C9.36552 10.9865 11.9242 8.73191 11.9737 8.52738C11.9799 8.5018 11.9858 8.40629 11.9272 8.35613C11.8685 8.30598 11.7824 8.32297 11.7201 8.3366C11.6319 8.35603 10.2258 9.25632 7.50206 11.0375C7.103 11.3029 6.74152 11.4323 6.41762 11.4255C6.06056 11.418 5.37375 11.23 4.86315 11.0691C4.2369 10.872 3.73915 10.7677 3.7825 10.4328C3.80508 10.2583 4.05306 10.0799 4.52645 9.89762C7.44167 8.6672 9.38559 7.856 10.3582 7.46402C13.1353 6.345 13.7124 6.15062 14.0885 6.14414C14.1712 6.14281 14.3562 6.16266 14.476 6.25684C14.5557 6.32393 14.6065 6.41755 14.6183 6.51918C14.6386 6.64537 14.6443 6.77337 14.6352 6.90078Z" fill="#6E00FF"/>
</svg>
