<svg width="30" height="30" viewBox="0 0 30 30" fill="none" xmlns="http://www.w3.org/2000/svg">
<path d="M15 0.46875C6.71571 0.46875 0 6.97459 0 15C0 23.0254 6.71571 29.5312 15 29.5312C23.2843 29.5312 30 23.0254 30 15C30 6.97459 23.2843 0.46875 15 0.46875ZM21.9527 10.3512C21.727 12.6489 20.7503 18.2249 20.2531 20.7984C20.0429 21.8873 19.6288 22.2525 19.2281 22.2882C18.3571 22.3659 17.6955 21.7305 16.8518 21.1948C15.5317 20.3564 14.7858 19.8345 13.5043 19.0164C12.0233 18.071 12.9834 17.5516 13.8274 16.702C14.0483 16.4797 17.8863 13.0979 17.9606 12.7911C17.9698 12.7527 17.9787 12.6094 17.8908 12.5342C17.8028 12.459 17.6736 12.4845 17.5802 12.5049C17.4478 12.534 15.3388 13.8845 11.2531 16.5562C10.6545 16.9544 10.1123 17.1484 9.62643 17.1383C9.09085 17.1271 8.06062 16.8449 7.29472 16.6037C6.35534 16.3079 5.60873 16.1515 5.67375 15.6492C5.70762 15.3874 6.0796 15.1199 6.78968 14.8464C11.1625 13.0008 14.0784 11.784 15.5373 11.196C19.703 9.5175 20.5686 9.22594 21.1328 9.21621C21.2569 9.21422 21.5343 9.24398 21.714 9.38525C21.8335 9.48589 21.9097 9.62632 21.9275 9.77877C21.958 9.96806 21.9664 10.1601 21.9527 10.3512V10.3512Z" />
</svg>
